<mxfile host="app.diagrams.net" modified="2024-05-12T23:19:27.190Z" agent="Mozilla/5.0 (Windows NT 10.0; Win64; x64) AppleWebKit/537.36 (KHTML, like Gecko) Chrome/124.0.0.0 Safari/537.36 Edg/124.0.0.0" etag="8o0bmT91zeuXIfpl2glv" version="24.4.0" type="github">
  <diagram name="PÃ¡gina-1" id="VrnxYfPV7QeQXhNNmXu0">
    <mxGraphModel dx="730" dy="775" grid="1" gridSize="10" guides="1" tooltips="1" connect="1" arrows="1" fold="1" page="1" pageScale="1" pageWidth="827" pageHeight="1169" math="0" shadow="0">
      <root>
        <mxCell id="0" />
        <mxCell id="1" parent="0" />
        <mxCell id="2kZJnqxmH_3mQ2elQ94J-3" value="" style="edgeStyle=orthogonalEdgeStyle;rounded=0;orthogonalLoop=1;jettySize=auto;html=1;" edge="1" parent="1" source="2kZJnqxmH_3mQ2elQ94J-1" target="2kZJnqxmH_3mQ2elQ94J-2">
          <mxGeometry relative="1" as="geometry" />
        </mxCell>
        <mxCell id="2kZJnqxmH_3mQ2elQ94J-1" value="INICIO 8" style="ellipse;whiteSpace=wrap;html=1;" vertex="1" parent="1">
          <mxGeometry x="190" y="40" width="120" height="80" as="geometry" />
        </mxCell>
        <mxCell id="2kZJnqxmH_3mQ2elQ94J-5" value="" style="edgeStyle=orthogonalEdgeStyle;rounded=0;orthogonalLoop=1;jettySize=auto;html=1;" edge="1" parent="1" source="2kZJnqxmH_3mQ2elQ94J-2" target="2kZJnqxmH_3mQ2elQ94J-4">
          <mxGeometry relative="1" as="geometry" />
        </mxCell>
        <mxCell id="2kZJnqxmH_3mQ2elQ94J-2" value="string s,bool pal,string s1" style="whiteSpace=wrap;html=1;" vertex="1" parent="1">
          <mxGeometry x="190" y="150" width="120" height="60" as="geometry" />
        </mxCell>
        <mxCell id="2kZJnqxmH_3mQ2elQ94J-7" value="" style="edgeStyle=orthogonalEdgeStyle;rounded=0;orthogonalLoop=1;jettySize=auto;html=1;" edge="1" parent="1" source="2kZJnqxmH_3mQ2elQ94J-4" target="2kZJnqxmH_3mQ2elQ94J-6">
          <mxGeometry relative="1" as="geometry" />
        </mxCell>
        <mxCell id="2kZJnqxmH_3mQ2elQ94J-12" value="" style="edgeStyle=orthogonalEdgeStyle;rounded=0;orthogonalLoop=1;jettySize=auto;html=1;" edge="1" parent="1" source="2kZJnqxmH_3mQ2elQ94J-4" target="2kZJnqxmH_3mQ2elQ94J-11">
          <mxGeometry relative="1" as="geometry" />
        </mxCell>
        <mxCell id="2kZJnqxmH_3mQ2elQ94J-4" value="s==&quot;&quot;" style="rhombus;whiteSpace=wrap;html=1;" vertex="1" parent="1">
          <mxGeometry x="210" y="240" width="80" height="80" as="geometry" />
        </mxCell>
        <mxCell id="2kZJnqxmH_3mQ2elQ94J-9" value="" style="edgeStyle=orthogonalEdgeStyle;rounded=0;orthogonalLoop=1;jettySize=auto;html=1;" edge="1" parent="1" source="2kZJnqxmH_3mQ2elQ94J-6" target="2kZJnqxmH_3mQ2elQ94J-8">
          <mxGeometry relative="1" as="geometry" />
        </mxCell>
        <mxCell id="2kZJnqxmH_3mQ2elQ94J-6" value="mostrar&lt;div&gt;YES&lt;/div&gt;" style="shape=parallelogram;perimeter=parallelogramPerimeter;whiteSpace=wrap;html=1;fixedSize=1;" vertex="1" parent="1">
          <mxGeometry x="350" y="250" width="120" height="60" as="geometry" />
        </mxCell>
        <mxCell id="2kZJnqxmH_3mQ2elQ94J-8" value="FIN" style="ellipse;whiteSpace=wrap;html=1;" vertex="1" parent="1">
          <mxGeometry x="510" y="250" width="80" height="60" as="geometry" />
        </mxCell>
        <mxCell id="2kZJnqxmH_3mQ2elQ94J-10" value="si" style="text;html=1;align=center;verticalAlign=middle;whiteSpace=wrap;rounded=0;" vertex="1" parent="1">
          <mxGeometry x="290" y="250" width="60" height="30" as="geometry" />
        </mxCell>
        <mxCell id="2kZJnqxmH_3mQ2elQ94J-15" value="" style="edgeStyle=orthogonalEdgeStyle;rounded=0;orthogonalLoop=1;jettySize=auto;html=1;" edge="1" parent="1" source="2kZJnqxmH_3mQ2elQ94J-11" target="2kZJnqxmH_3mQ2elQ94J-14">
          <mxGeometry relative="1" as="geometry" />
        </mxCell>
        <mxCell id="2kZJnqxmH_3mQ2elQ94J-29" style="edgeStyle=orthogonalEdgeStyle;rounded=0;orthogonalLoop=1;jettySize=auto;html=1;" edge="1" parent="1" source="2kZJnqxmH_3mQ2elQ94J-11" target="2kZJnqxmH_3mQ2elQ94J-30">
          <mxGeometry relative="1" as="geometry">
            <mxPoint x="250" y="610" as="targetPoint" />
          </mxGeometry>
        </mxCell>
        <mxCell id="2kZJnqxmH_3mQ2elQ94J-11" value="int i=0, i&amp;lt;s1.size()" style="rhombus;whiteSpace=wrap;html=1;" vertex="1" parent="1">
          <mxGeometry x="190" y="370" width="120" height="80" as="geometry" />
        </mxCell>
        <mxCell id="2kZJnqxmH_3mQ2elQ94J-19" value="" style="edgeStyle=orthogonalEdgeStyle;rounded=0;orthogonalLoop=1;jettySize=auto;html=1;" edge="1" parent="1" source="2kZJnqxmH_3mQ2elQ94J-14" target="2kZJnqxmH_3mQ2elQ94J-18">
          <mxGeometry relative="1" as="geometry" />
        </mxCell>
        <mxCell id="2kZJnqxmH_3mQ2elQ94J-23" value="" style="edgeStyle=orthogonalEdgeStyle;rounded=0;orthogonalLoop=1;jettySize=auto;html=1;" edge="1" parent="1" source="2kZJnqxmH_3mQ2elQ94J-14" target="2kZJnqxmH_3mQ2elQ94J-22">
          <mxGeometry relative="1" as="geometry" />
        </mxCell>
        <mxCell id="2kZJnqxmH_3mQ2elQ94J-14" value="s1[i] == s1[s1.size()-1-i" style="rhombus;whiteSpace=wrap;html=1;" vertex="1" parent="1">
          <mxGeometry x="340" y="370" width="180" height="80" as="geometry" />
        </mxCell>
        <mxCell id="2kZJnqxmH_3mQ2elQ94J-21" value="" style="edgeStyle=orthogonalEdgeStyle;rounded=0;orthogonalLoop=1;jettySize=auto;html=1;" edge="1" parent="1" source="2kZJnqxmH_3mQ2elQ94J-18" target="2kZJnqxmH_3mQ2elQ94J-20">
          <mxGeometry relative="1" as="geometry" />
        </mxCell>
        <mxCell id="2kZJnqxmH_3mQ2elQ94J-18" value="mostrar&amp;nbsp;&lt;div&gt;NO&lt;/div&gt;" style="shape=parallelogram;perimeter=parallelogramPerimeter;whiteSpace=wrap;html=1;fixedSize=1;" vertex="1" parent="1">
          <mxGeometry x="355" y="490" width="150" height="60" as="geometry" />
        </mxCell>
        <mxCell id="2kZJnqxmH_3mQ2elQ94J-20" value="pal=false" style="whiteSpace=wrap;html=1;" vertex="1" parent="1">
          <mxGeometry x="540" y="490" width="120" height="60" as="geometry" />
        </mxCell>
        <mxCell id="2kZJnqxmH_3mQ2elQ94J-26" style="edgeStyle=orthogonalEdgeStyle;rounded=0;orthogonalLoop=1;jettySize=auto;html=1;" edge="1" parent="1" source="2kZJnqxmH_3mQ2elQ94J-22">
          <mxGeometry relative="1" as="geometry">
            <mxPoint x="722" y="370" as="targetPoint" />
          </mxGeometry>
        </mxCell>
        <mxCell id="2kZJnqxmH_3mQ2elQ94J-22" value="pal=true" style="whiteSpace=wrap;html=1;" vertex="1" parent="1">
          <mxGeometry x="540" y="380" width="120" height="60" as="geometry" />
        </mxCell>
        <mxCell id="2kZJnqxmH_3mQ2elQ94J-27" value="i++" style="rounded=0;whiteSpace=wrap;html=1;" vertex="1" parent="1">
          <mxGeometry x="670" y="330" width="90" height="40" as="geometry" />
        </mxCell>
        <mxCell id="2kZJnqxmH_3mQ2elQ94J-28" style="edgeStyle=orthogonalEdgeStyle;rounded=0;orthogonalLoop=1;jettySize=auto;html=1;entryX=0.583;entryY=0.05;entryDx=0;entryDy=0;entryPerimeter=0;" edge="1" parent="1" source="2kZJnqxmH_3mQ2elQ94J-27" target="2kZJnqxmH_3mQ2elQ94J-11">
          <mxGeometry relative="1" as="geometry">
            <Array as="points">
              <mxPoint x="260" y="350" />
            </Array>
          </mxGeometry>
        </mxCell>
        <mxCell id="2kZJnqxmH_3mQ2elQ94J-38" value="" style="edgeStyle=orthogonalEdgeStyle;rounded=0;orthogonalLoop=1;jettySize=auto;html=1;" edge="1" parent="1" source="2kZJnqxmH_3mQ2elQ94J-30" target="2kZJnqxmH_3mQ2elQ94J-37">
          <mxGeometry relative="1" as="geometry" />
        </mxCell>
        <mxCell id="2kZJnqxmH_3mQ2elQ94J-41" style="edgeStyle=orthogonalEdgeStyle;rounded=0;orthogonalLoop=1;jettySize=auto;html=1;entryX=0;entryY=0;entryDx=0;entryDy=0;" edge="1" parent="1" source="2kZJnqxmH_3mQ2elQ94J-30" target="2kZJnqxmH_3mQ2elQ94J-39">
          <mxGeometry relative="1" as="geometry">
            <Array as="points">
              <mxPoint x="250" y="722" />
            </Array>
          </mxGeometry>
        </mxCell>
        <mxCell id="2kZJnqxmH_3mQ2elQ94J-30" value="pal==true" style="rhombus;whiteSpace=wrap;html=1;" vertex="1" parent="1">
          <mxGeometry x="210" y="580" width="80" height="80" as="geometry" />
        </mxCell>
        <mxCell id="2kZJnqxmH_3mQ2elQ94J-31" style="edgeStyle=orthogonalEdgeStyle;rounded=0;orthogonalLoop=1;jettySize=auto;html=1;entryX=0.675;entryY=0.175;entryDx=0;entryDy=0;entryPerimeter=0;" edge="1" parent="1" source="2kZJnqxmH_3mQ2elQ94J-20" target="2kZJnqxmH_3mQ2elQ94J-30">
          <mxGeometry relative="1" as="geometry">
            <Array as="points">
              <mxPoint x="600" y="570" />
              <mxPoint x="264" y="570" />
            </Array>
          </mxGeometry>
        </mxCell>
        <mxCell id="2kZJnqxmH_3mQ2elQ94J-32" value="si" style="text;html=1;align=center;verticalAlign=middle;whiteSpace=wrap;rounded=0;" vertex="1" parent="1">
          <mxGeometry x="300" y="370" width="60" height="30" as="geometry" />
        </mxCell>
        <mxCell id="2kZJnqxmH_3mQ2elQ94J-33" value="si" style="text;html=1;align=center;verticalAlign=middle;whiteSpace=wrap;rounded=0;" vertex="1" parent="1">
          <mxGeometry x="490" y="380" width="60" height="30" as="geometry" />
        </mxCell>
        <mxCell id="2kZJnqxmH_3mQ2elQ94J-34" value="no" style="text;html=1;align=center;verticalAlign=middle;whiteSpace=wrap;rounded=0;" vertex="1" parent="1">
          <mxGeometry x="430" y="450" width="60" height="30" as="geometry" />
        </mxCell>
        <mxCell id="2kZJnqxmH_3mQ2elQ94J-36" value="no" style="text;html=1;align=center;verticalAlign=middle;whiteSpace=wrap;rounded=0;" vertex="1" parent="1">
          <mxGeometry x="250" y="460" width="60" height="30" as="geometry" />
        </mxCell>
        <mxCell id="2kZJnqxmH_3mQ2elQ94J-40" style="edgeStyle=orthogonalEdgeStyle;rounded=0;orthogonalLoop=1;jettySize=auto;html=1;" edge="1" parent="1" source="2kZJnqxmH_3mQ2elQ94J-37" target="2kZJnqxmH_3mQ2elQ94J-39">
          <mxGeometry relative="1" as="geometry" />
        </mxCell>
        <mxCell id="2kZJnqxmH_3mQ2elQ94J-37" value="mostrar&lt;div&gt;YES&lt;/div&gt;" style="shape=parallelogram;perimeter=parallelogramPerimeter;whiteSpace=wrap;html=1;fixedSize=1;" vertex="1" parent="1">
          <mxGeometry x="350" y="590" width="120" height="60" as="geometry" />
        </mxCell>
        <mxCell id="2kZJnqxmH_3mQ2elQ94J-39" value="FIN" style="ellipse;whiteSpace=wrap;html=1;" vertex="1" parent="1">
          <mxGeometry x="294" y="710" width="120" height="80" as="geometry" />
        </mxCell>
        <mxCell id="2kZJnqxmH_3mQ2elQ94J-43" value="si" style="text;html=1;align=center;verticalAlign=middle;whiteSpace=wrap;rounded=0;" vertex="1" parent="1">
          <mxGeometry x="290" y="590" width="60" height="30" as="geometry" />
        </mxCell>
        <mxCell id="2kZJnqxmH_3mQ2elQ94J-44" value="no" style="text;html=1;align=center;verticalAlign=middle;whiteSpace=wrap;rounded=0;" vertex="1" parent="1">
          <mxGeometry x="240" y="670" width="60" height="30" as="geometry" />
        </mxCell>
      </root>
    </mxGraphModel>
  </diagram>
</mxfile>
